<?xml version="1.0" encoding="UTF-8"?>
<svg width="16px" height="15px" viewBox="0 0 16 15" version="1.1" xmlns="http://www.w3.org/2000/svg" xmlns:xlink="http://www.w3.org/1999/xlink">
    <title>Group 2</title>
    <defs>
        <linearGradient x1="66.418457%" y1="73.6328125%" x2="50%" y2="4.70657349%" id="linearGradient-1">
            <stop stop-color="#DBDFF2" offset="0%"></stop>
            <stop stop-color="#F4F6FE" offset="100%"></stop>
            <stop stop-color="#F5F7FE" offset="100%"></stop>
        </linearGradient>
        <linearGradient x1="62.1731505%" y1="51.7578125%" x2="-55.7876276%" y2="41.4825439%" id="linearGradient-2">
            <stop stop-color="#DBDFF2" offset="0%"></stop>
            <stop stop-color="#F5F7FE" offset="100%"></stop>
        </linearGradient>
        <linearGradient x1="55.4102891%" y1="100%" x2="9.00607639%" y2="-184.648437%" id="linearGradient-3">
            <stop stop-color="#B3B6D4" offset="0%"></stop>
            <stop stop-color="#F5F7FE" offset="100%"></stop>
        </linearGradient>
    </defs>
    <g id="Design" stroke="none" stroke-width="1" fill="none" fill-rule="evenodd">
        <g id="Finder---Focus" transform="translate(-519.000000, -656.000000)">
            <g id="Google-Chrome-Browser-74.0-Light" transform="translate(95.000000, 123.000000)">
                <g id="Body-2" transform="translate(0.000000, 146.000000)">
                    <g id="Rectangle-2" transform="translate(-79.000000, -199.000000)">
                        <g id="Cards---Multiple-Tabs-Copy-3" transform="translate(479.000000, 348.000000)">
                            <g id="Group-35">
                                <g id="Group-48-Copy-2">
                                    <g id="Group-37-Copy">
                                        <g id="Group-29" transform="translate(24.000000, 133.000000)">
                                            <g id="Group-18" transform="translate(0.000000, 105.000000)">
                                                <g id="Group-2">
                                                    <g id="Group-100" transform="translate(0.000000, 1.000000)">
                                                        <path d="M0,3 L16,3 L16,13 C16,13.5522847 15.5522847,14 15,14 L1,14 C0.44771525,14 6.76353751e-17,13.5522847 0,13 L0,3 L0,3 Z" id="Rectangle" fill="url(#linearGradient-1)"></path>
                                                        <path d="M0,3 L0,1 C-6.76353751e-17,0.44771525 0.44771525,1.01453063e-16 1,0 L5,0 C5.55228475,-1.01453063e-16 6,0.44771525 6,1 L14,1 C15.0543618,1 15.9181651,1.81587779 15.9945143,2.85073766 L16,3 L0,3 Z" id="Combined-Shape" fill="url(#linearGradient-2)"></path>
                                                    </g>
                                                    <path d="M3,1 L3,9.56834591 C3,10.1206307 3.44771525,10.5683459 4,10.5683459 C4.26697619,10.5683459 4.52286773,10.4615903 4.71068756,10.2718537 L6.28931244,8.67711785 C6.67784906,8.28461595 7.31100587,8.28140145 7.70350778,8.66993806 C7.70591317,8.67231916 7.70830646,8.67471245 7.71068756,8.67711785 L9.28931244,10.2718537 C9.67784906,10.6643556 10.3110059,10.6675701 10.7035078,10.2790335 C10.8932444,10.0912136 11,9.8353221 11,9.56834591 L11,1 C11,0.44771525 10.5522847,-1.01453063e-16 10,0 L4,0 C3.44771525,1.01453063e-16 3,0.44771525 3,1 Z" id="Path" fill="url(#linearGradient-3)"></path>
                                                </g>
                                            </g>
                                        </g>
                                    </g>
                                </g>
                            </g>
                        </g>
                    </g>
                </g>
            </g>
        </g>
    </g>
</svg>