<?xml version="1.0" encoding="UTF-8"?>
<svg width="55px" height="45px" viewBox="0 0 55 45" version="1.1" xmlns="http://www.w3.org/2000/svg" xmlns:xlink="http://www.w3.org/1999/xlink">
    <title>Group 2</title>
    <defs>
        <linearGradient x1="55.8168639%" y1="73.3282571%" x2="37.0495855%" y2="15.4731395%" id="linearGradient-1">
            <stop stop-color="#DBDFF2" offset="0%"></stop>
            <stop stop-color="#F4F6FE" offset="100%"></stop>
            <stop stop-color="#F5F7FE" offset="100%"></stop>
        </linearGradient>
        <linearGradient x1="62.1731505%" y1="51.6528926%" x2="-55.7876276%" y2="41.990932%" id="linearGradient-2">
            <stop stop-color="#DBDFF2" offset="0%"></stop>
            <stop stop-color="#F5F7FE" offset="100%"></stop>
        </linearGradient>
    </defs>
    <g id="Design" stroke="none" stroke-width="1" fill="none" fill-rule="evenodd">
        <g id="Finder---Focus" transform="translate(-694.000000, -563.000000)">
            <g id="Google-Chrome-Browser-74.0-Light" transform="translate(95.000000, 123.000000)">
                <g id="Body-2" transform="translate(0.000000, 146.000000)">
                    <g id="Rectangle-2" transform="translate(-79.000000, -199.000000)">
                        <g id="Cards---Multiple-Tabs-Copy-3" transform="translate(479.000000, 348.000000)">
                            <g id="Group-35">
                                <g id="Group-48-Copy-2">
                                    <g id="Group-37-Copy">
                                        <g id="Group-30" transform="translate(187.000000, 133.000000)">
                                            <g id="Group-7" transform="translate(12.000000, 12.000000)">
                                                <g id="Group-100">
                                                    <g id="Group-2">
                                                        <path d="M0,10 L55,10 L55,43 C55,44.1045695 54.1045695,45 53,45 L2,45 C0.8954305,45 1.3527075e-16,44.1045695 0,43 L0,10 L0,10 Z" id="Rectangle" fill="url(#linearGradient-1)"></path>
                                                        <path d="M0,10 L0,2 C-1.3527075e-16,0.8954305 0.8954305,2.02906125e-16 2,0 L26.0612245,0 C27.165794,-2.02906125e-16 28.0612245,0.8954305 28.0612245,2 L28.0612245,4.44444444 L53,4.44444444 C54.1045695,4.44444444 55,5.33987494 55,6.44444444 L55,10 L0,10 Z" id="Combined-Shape" fill="url(#linearGradient-2)"></path>
                                                    </g>
                                                </g>
                                            </g>
                                        </g>
                                    </g>
                                </g>
                            </g>
                        </g>
                    </g>
                </g>
            </g>
        </g>
    </g>
</svg>