<?xml version="1.0" encoding="UTF-8"?>
<svg width="16px" height="15px" viewBox="0 0 16 15" version="1.1" xmlns="http://www.w3.org/2000/svg" xmlns:xlink="http://www.w3.org/1999/xlink">
    <title>Group 6</title>
    <defs>
        <linearGradient x1="34.5397949%" y1="-15.2256012%" x2="76.2390137%" y2="177.813339%" id="linearGradient-1">
            <stop stop-color="#DBDFF2" offset="0%"></stop>
            <stop stop-color="#F4F6FE" offset="100%"></stop>
            <stop stop-color="#F5F7FE" offset="100%"></stop>
        </linearGradient>
        <linearGradient x1="58.9435392%" y1="100%" x2="-17.7654656%" y2="-184.648437%" id="linearGradient-2">
            <stop stop-color="#B3B6D4" offset="0%"></stop>
            <stop stop-color="#F5F7FE" offset="100%"></stop>
        </linearGradient>
    </defs>
    <g id="Design" stroke="none" stroke-width="1" fill="none" fill-rule="evenodd">
        <g id="Finder---Focus" transform="translate(-519.000000, -574.000000)">
            <g id="Google-Chrome-Browser-74.0-Light" transform="translate(95.000000, 123.000000)">
                <g id="Body-2" transform="translate(0.000000, 146.000000)">
                    <g id="Rectangle-2" transform="translate(-79.000000, -199.000000)">
                        <g id="Cards---Multiple-Tabs-Copy-3" transform="translate(479.000000, 348.000000)">
                            <g id="Group-35">
                                <g id="Group-48-Copy-2">
                                    <g id="Group-37-Copy">
                                        <g id="Group-29" transform="translate(24.000000, 133.000000)">
                                            <g id="Group-16" transform="translate(0.000000, 23.000000)">
                                                <g id="Group-15">
                                                    <g id="Group-6">
                                                        <path d="M0.94000212,4.41249868 L6.94000212,0.662498675 C7.58854269,0.257160819 8.41145731,0.257160819 9.05999788,0.662498675 L15.0599979,4.41249868 C15.6447606,4.77797538 16,5.41891522 16,6.10849528 L16,13 C16,14.1045695 15.1045695,15 14,15 L2,15 C0.8954305,15 1.3527075e-16,14.1045695 0,13 L0,6.10849528 C8.03729218e-16,5.41891522 0.355239393,4.77797538 0.94000212,4.41249868 Z" id="Rectangle" fill="url(#linearGradient-1)"></path>
                                                        <path d="M6,8 L10,8 C10.5522847,8 11,8.44771525 11,9 L11,15 L11,15 L5,15 L5,9 C5,8.44771525 5.44771525,8 6,8 Z" id="Rectangle" fill="url(#linearGradient-2)"></path>
                                                    </g>
                                                </g>
                                            </g>
                                        </g>
                                    </g>
                                </g>
                            </g>
                        </g>
                    </g>
                </g>
            </g>
        </g>
    </g>
</svg>