<?xml version="1.0" encoding="UTF-8"?>
<svg width="20px" height="19px" viewBox="0 0 20 19" version="1.1" xmlns="http://www.w3.org/2000/svg" xmlns:xlink="http://www.w3.org/1999/xlink">
    <title>Group 12</title>
    <g id="Design" stroke="none" stroke-width="1" fill="none" fill-rule="evenodd">
        <g id="Finder---Focus" transform="translate(-929.000000, -496.000000)">
            <g id="Google-Chrome-Browser-74.0-Light" transform="translate(95.000000, 123.000000)">
                <g id="Body-2" transform="translate(0.000000, 146.000000)">
                    <g id="Rectangle-2" transform="translate(-79.000000, -199.000000)">
                        <g id="Cards---Multiple-Tabs-Copy-3" transform="translate(479.000000, 348.000000)">
                            <g id="Group-35">
                                <g id="Group-48-Copy-2">
                                    <g id="Group-37-Copy">
                                        <g id="Group-5-Copy" transform="translate(424.000000, 68.000000)">
                                            <g id="Group-9" transform="translate(11.000000, 11.000000)">
                                                <g id="Group-12">
                                                    <g id="Group-6" stroke="#777BAD" stroke-width="2">
                                                        <path d="M0,5 L13,5 L13,11 C13,11.5522847 12.5522847,12 12,12 L1,12 C0.44771525,12 6.76353751e-17,11.5522847 0,11 L0,5 L0,5 Z" id="Rectangle"></path>
                                                        <path d="M3.875,0 C4.42694758,-1.01391126e-16 4.8744533,0.447168756 4.8749995,0.998988606 L11,1 C12.1045695,1 13,1.8954305 13,3 L13,5 L4.875,4.999 L4.875,5 L0,5 L0,1 C-6.76353751e-17,0.44771525 0.44771525,1.01453063e-16 1,0 L3.875,0 Z" id="Combined-Shape"></path>
                                                    </g>
                                                    <g id="Group-10" transform="translate(7.000000, 6.000000)">
                                                        <circle id="Oval" fill="#777BAD" cx="6" cy="6" r="6"></circle>
                                                        <path d="M5.24803768,3 L5.9,3.57846381 L4.395,5.5 L9,5.5 L9,6.5 L4.395,6.5 L5.9,8.42153619 L5.24803768,9 L2.9,6 L5.24803768,3 Z" id="Combined-Shape" fill="#F4F6FE" fill-rule="nonzero" transform="translate(5.950000, 6.000000) rotate(-180.000000) translate(-5.950000, -6.000000) "></path>
                                                    </g>
                                                </g>
                                            </g>
                                        </g>
                                    </g>
                                </g>
                            </g>
                        </g>
                    </g>
                </g>
            </g>
        </g>
    </g>
</svg>