<?xml version="1.0" encoding="UTF-8"?>
<svg width="121px" height="50px" viewBox="0 0 121 50" version="1.1" xmlns="http://www.w3.org/2000/svg" xmlns:xlink="http://www.w3.org/1999/xlink">
    <!-- Generator: Sketch 60.1 (88133) - https://sketch.com -->
    <title>Logo Light</title>
    <desc>Created with Sketch.</desc>
    <defs>
        <linearGradient x1="25.7428977%" y1="15.9247159%" x2="75.7521307%" y2="100%" id="linearGradient-1">
            <stop stop-color="#FFFFFF" offset="0%"></stop>
            <stop stop-color="#A1A2CE" offset="99.2544781%"></stop>
            <stop stop-color="#A0A1CD" offset="100%"></stop>
        </linearGradient>
        <path d="M25,0 C38.8071187,0 50,11.1928813 50,25 C50,38.8071187 38.8071187,50 25,50 C11.1928813,50 0,38.8071187 0,25 C0,11.1928813 11.1928813,0 25,0 Z M25,10 C16.7157288,10 10,16.7157288 10,25 C10,33.2842712 16.7157288,40 25,40 C33.2842712,40 40,33.2842712 40,25 C40,16.7157288 33.2842712,10 25,10 Z" id="path-2"></path>
        <linearGradient x1="26.0955561%" y1="10.9299596%" x2="94.655922%" y2="90.1784815%" id="linearGradient-4">
            <stop stop-color="#A0A1CD" offset="0%"></stop>
            <stop stop-color="#FFFFFF" offset="100%"></stop>
        </linearGradient>
        <path d="M69.864,34.384 C71.144,34.384 72.332,34.152 73.428,33.688 C74.524,33.224 75.472,32.588 76.272,31.78 C77.072,30.972 77.7,30.02 78.156,28.924 C78.612,27.828 78.84,26.656 78.84,25.408 C78.84,24.16 78.612,22.988 78.156,21.892 C77.7,20.796 77.072,19.844 76.272,19.036 C75.472,18.228 74.524,17.592 73.428,17.128 C72.332,16.664 71.144,16.432 69.864,16.432 C68.584,16.432 67.396,16.664 66.3,17.128 C65.204,17.592 64.256,18.228 63.456,19.036 C62.656,19.844 62.028,20.796 61.572,21.892 C61.116,22.988 60.888,24.16 60.888,25.408 C60.888,26.656 61.116,27.828 61.572,28.924 C62.028,30.02 62.656,30.972 63.456,31.78 C64.256,32.588 65.204,33.224 66.3,33.688 C67.396,34.152 68.584,34.384 69.864,34.384 Z M69.864,31.312 C69.064,31.312 68.316,31.168 67.62,30.88 C66.924,30.592 66.316,30.192 65.796,29.68 C65.276,29.168 64.868,28.548 64.572,27.82 C64.276,27.092 64.128,26.288 64.128,25.408 C64.128,24.528 64.276,23.724 64.572,22.996 C64.868,22.268 65.276,21.648 65.796,21.136 C66.316,20.624 66.924,20.224 67.62,19.936 C68.316,19.648 69.064,19.504 69.864,19.504 C70.664,19.504 71.412,19.648 72.108,19.936 C72.804,20.224 73.412,20.624 73.932,21.136 C74.452,21.648 74.86,22.268 75.156,22.996 C75.452,23.724 75.6,24.528 75.6,25.408 C75.6,26.288 75.452,27.092 75.156,27.82 C74.86,28.548 74.452,29.168 73.932,29.68 C73.412,30.192 72.804,30.592 72.108,30.88 C71.412,31.168 70.664,31.312 69.864,31.312 Z M84.3102857,34 L84.3102857,28.288 C84.3102857,27.792 84.3662857,27.328 84.4782857,26.896 C84.5902857,26.464 84.7502857,26.092 84.9582857,25.78 C85.1662857,25.468 85.4222857,25.22 85.7262857,25.036 C86.0302857,24.852 86.3822857,24.76 86.7822857,24.76 C88.1582857,24.76 88.8462857,25.56 88.8462857,27.16 L88.8462857,27.16 L88.8462857,34 L91.9902857,34 L91.9902857,28.288 C91.9902857,27.792 92.0502857,27.328 92.1702857,26.896 C92.2902857,26.464 92.4582857,26.092 92.6742857,25.78 C92.8902857,25.468 93.1582857,25.22 93.4782857,25.036 C93.7982857,24.852 94.1662857,24.76 94.5822857,24.76 C95.8942857,24.76 96.5502857,25.56 96.5502857,27.16 L96.5502857,27.16 L96.5502857,34 L99.6942857,34 L99.6942857,26.584 C99.6942857,25.896 99.6062857,25.26 99.4302857,24.676 C99.2542857,24.092 98.9942857,23.592 98.6502857,23.176 C98.3062857,22.76 97.8702857,22.436 97.3422857,22.204 C96.8142857,21.972 96.1902857,21.856 95.4702857,21.856 C94.5102857,21.856 93.6942857,22.068 93.0222857,22.492 C92.3502857,22.916 91.8302857,23.424 91.4622857,24.016 C91.2062857,23.408 90.7742857,22.896 90.1662857,22.48 C89.5582857,22.064 88.8062857,21.856 87.9102857,21.856 C87.1422857,21.856 86.4422857,22.032 85.8102857,22.384 C85.1782857,22.736 84.6782857,23.2 84.3102857,23.776 L84.3102857,23.776 L84.1182857,23.776 L84.1182857,22.24 L81.1662857,22.24 L81.1662857,34 L84.3102857,34 Z M105.644571,34 L105.644571,28.24 C105.644571,27.76 105.704571,27.308 105.824571,26.884 C105.944571,26.46 106.120571,26.092 106.352571,25.78 C106.584571,25.468 106.864571,25.22 107.192571,25.036 C107.520571,24.852 107.900571,24.76 108.332571,24.76 C109.052571,24.76 109.600571,24.964 109.976571,25.372 C110.352571,25.78 110.540571,26.408 110.540571,27.256 L110.540571,27.256 L110.540571,34 L113.684571,34 L113.684571,26.872 C113.684571,26.12 113.592571,25.436 113.408571,24.82 C113.224571,24.204 112.952571,23.676 112.592571,23.236 C112.232571,22.796 111.772571,22.456 111.212571,22.216 C110.652571,21.976 110.004571,21.856 109.268571,21.856 C108.468571,21.856 107.756571,22.028 107.132571,22.372 C106.508571,22.716 106.012571,23.184 105.644571,23.776 L105.644571,23.776 L105.452571,23.776 L105.452571,22.24 L102.500571,22.24 L102.500571,34 L105.644571,34 Z M118.242857,20.536 C118.802857,20.536 119.282857,20.34 119.682857,19.948 C120.082857,19.556 120.282857,19.08 120.282857,18.52 C120.282857,17.96 120.082857,17.484 119.682857,17.092 C119.282857,16.7 118.802857,16.504 118.242857,16.504 C117.970857,16.504 117.710857,16.556 117.462857,16.66 C117.214857,16.764 116.998857,16.908 116.814857,17.092 C116.630857,17.276 116.486857,17.488 116.382857,17.728 C116.278857,17.968 116.226857,18.232 116.226857,18.52 C116.226857,18.808 116.278857,19.072 116.382857,19.312 C116.486857,19.552 116.630857,19.764 116.814857,19.948 C116.998857,20.132 117.214857,20.276 117.462857,20.38 C117.710857,20.484 117.970857,20.536 118.242857,20.536 Z M119.826857,34 L119.826857,22.24 L116.682857,22.24 L116.682857,34 L119.826857,34 Z" id="path-5"></path>
    </defs>
    <g id="Design" stroke="none" stroke-width="1" fill="none" fill-rule="evenodd">
        <g id="Logo-Light">
            <g id="Combined-Shape-2">
                <mask id="mask-3" fill="white">
                    <use xlink:href="#path-2"></use>
                </mask>
                <use id="Combined-Shape" fill="url(#linearGradient-1)" fill-rule="nonzero" xlink:href="#path-2"></use>
                <circle id="Oval" fill="url(#linearGradient-4)" fill-rule="nonzero" mask="url(#mask-3)" cx="30.5" cy="23.5" r="20.5"></circle>
            </g>
            <g id="Omni" fill-rule="nonzero">
                <use fill="#E8EBF8" xlink:href="#path-5"></use>
                <use fill="#FDFDFE" xlink:href="#path-5"></use>
            </g>
        </g>
    </g>
</svg>