<?xml version="1.0" encoding="UTF-8"?>
<svg width="177px" height="91px" viewBox="0 0 177 91" version="1.1" xmlns="http://www.w3.org/2000/svg" xmlns:xlink="http://www.w3.org/1999/xlink">
    <!-- Generator: Sketch 55.2 (78181) - https://sketchapp.com -->
    <title>Group 2</title>
    <desc>Created with Sketch.</desc>
    <defs>
        <linearGradient x1="55.8168639%" y1="53.2941342%" x2="50%" y2="47.2018064%" id="linearGradient-1">
            <stop stop-color="#DBDFF2" offset="0%"></stop>
            <stop stop-color="#F5F7FE" offset="100%"></stop>
        </linearGradient>
        <linearGradient x1="50%" y1="2.4572424%" x2="50%" y2="100%" id="linearGradient-2">
            <stop stop-color="#FFFFFF" stop-opacity="0" offset="0%"></stop>
            <stop stop-color="#F5F7FE" stop-opacity="0.848639642" offset="62.6665331%"></stop>
            <stop stop-color="#D3DCFB" stop-opacity="0" offset="100%"></stop>
        </linearGradient>
        <linearGradient x1="47.3171412%" y1="22.8759222%" x2="57.1268548%" y2="133.77167%" id="linearGradient-3">
            <stop stop-color="#FFFFFF" stop-opacity="0" offset="0%"></stop>
            <stop stop-color="#F5F7FE" offset="36.9974734%"></stop>
            <stop stop-color="#10215C" offset="100%"></stop>
        </linearGradient>
        <path d="M63.8930888,56.6829171 C63.8634909,58.3139035 60.8482368,59.7764249 56.0860882,60.7744291 C52.2729057,61.6786224 47.2431418,62.130719 40.9967964,62.130719 C34.7688959,62.130719 29.7518819,61.6812884 25.9457544,60.7824273 C21.1378809,59.7793179 18.1002841,58.3037754 18.1002841,56.6586768 L-9.09494702e-13,0.130718954 L80,0.130718954 L63.9113202,56.6586768 C63.9052672,56.6667658 63.8991901,56.6748459 63.8930888,56.6829171 Z" id="path-4"></path>
        <path d="M30.0711692,60.5141612 C32.2981293,60.5141612 34.3650267,60.1105247 36.2718612,59.3032517 C38.1786958,58.4959786 39.8280382,57.3894578 41.2198882,55.9836893 C42.6117383,54.5779207 43.7043406,52.9216191 44.4976951,51.0147845 C45.2910497,49.1079499 45.6877269,47.0688896 45.6877269,44.8976035 C45.6877269,42.7263174 45.2910497,40.687257 44.4976951,38.7804224 C43.7043406,36.8735879 42.6117383,35.2172863 41.2198882,33.8115177 C39.8280382,32.4057491 38.1786958,31.2992283 36.2718612,30.4919553 C34.3650267,29.6846823 32.2981293,29.2810458 30.0711692,29.2810458 C27.8442091,29.2810458 25.7773118,29.6846823 23.8704772,30.4919553 C21.9636426,31.2992283 20.3143002,32.4057491 18.9224502,33.8115177 C17.5306001,35.2172863 16.4379978,36.8735879 15.6446433,38.7804224 C14.8512887,40.687257 14.4546115,42.7263174 14.4546115,44.8976035 C14.4546115,47.0688896 14.8512887,49.1079499 15.6446433,51.0147845 C16.4379978,52.9216191 17.5306001,54.5779207 18.9224502,55.9836893 C20.3143002,57.3894578 21.9636426,58.4959786 23.8704772,59.3032517 C25.7773118,60.1105247 27.8442091,60.5141612 30.0711692,60.5141612 Z" id="path-6"></path>
        <filter x="-137.7%" y="-121.7%" width="375.3%" height="375.3%" filterUnits="objectBoundingBox" id="filter-7">
            <feOffset dx="0" dy="5" in="SourceAlpha" result="shadowOffsetOuter1"></feOffset>
            <feGaussianBlur stdDeviation="13.5" in="shadowOffsetOuter1" result="shadowBlurOuter1"></feGaussianBlur>
            <feColorMatrix values="0 0 0 0 0.584313725   0 0 0 0 0.592156863   0 0 0 0 0.77254902  0 0 0 1 0" type="matrix" in="shadowBlurOuter1"></feColorMatrix>
        </filter>
        <linearGradient x1="14.0301724%" y1="23.581063%" x2="105.591325%" y2="100%" id="linearGradient-8">
            <stop stop-color="#777BAD" offset="0%"></stop>
            <stop stop-color="#A0A1CD" offset="100%"></stop>
        </linearGradient>
        <path d="M30.0711692,57.7487291 C32.2981293,57.7487291 34.3650267,57.3450926 36.2718612,56.5378196 C38.1786958,55.7305465 39.8280382,54.6240257 41.2198882,53.2182572 C42.6117383,51.8124886 43.7043406,50.156187 44.4976951,48.2493524 C45.2910497,46.3425178 45.6877269,44.3034575 45.6877269,42.1321714 C45.6877269,39.9608853 45.2910497,37.9218249 44.4976951,36.0149903 C43.7043406,34.1081558 42.6117383,32.4518542 41.2198882,31.0460856 C39.8280382,29.640317 38.1786958,28.5337962 36.2718612,27.7265232 C34.3650267,26.9192502 32.2981293,26.5156137 30.0711692,26.5156137 C27.8442091,26.5156137 25.7773118,26.9192502 23.8704772,27.7265232 C21.9636426,28.5337962 20.3143002,29.640317 18.9224502,31.0460856 C17.5306001,32.4518542 16.4379978,34.1081558 15.6446433,36.0149903 C14.8512887,37.9218249 14.4546115,39.9608853 14.4546115,42.1321714 C14.4546115,44.3034575 14.8512887,46.3425178 15.6446433,48.2493524 C16.4379978,50.156187 17.5306001,51.8124886 18.9224502,53.2182572 C20.3143002,54.6240257 21.9636426,55.7305465 23.8704772,56.5378196 C25.7773118,57.3450926 27.8442091,57.7487291 30.0711692,57.7487291 Z" id="path-9"></path>
        <filter x="-137.7%" y="-121.7%" width="375.3%" height="375.3%" filterUnits="objectBoundingBox" id="filter-10">
            <feOffset dx="0" dy="5" in="SourceAlpha" result="shadowOffsetOuter1"></feOffset>
            <feGaussianBlur stdDeviation="13.5" in="shadowOffsetOuter1" result="shadowBlurOuter1"></feGaussianBlur>
            <feColorMatrix values="0 0 0 0 0.584313725   0 0 0 0 0.592156863   0 0 0 0 0.77254902  0 0 0 1 0" type="matrix" in="shadowBlurOuter1"></feColorMatrix>
        </filter>
    </defs>
    <g id="Design" stroke="none" stroke-width="1" fill="none" fill-rule="evenodd">
        <g id="1,-2,-3" transform="translate(-397.000000, -230.000000)">
            <g id="Group-2" transform="translate(399.000000, 230.000000)">
                <g id="Group">
                    <text id="Omni" fill="#323453" font-family="Helvetica" font-size="36" font-weight="normal" letter-spacing="0.321428571">
                        <tspan x="85" y="54">Omni</tspan>
                    </text>
                    <g id="Group-95">
                        <g id="Group-2" transform="translate(0.000000, 18.869281)">
                            <g id="Group-7">
                                <ellipse id="Oval" fill="url(#linearGradient-1)" opacity="0.75" cx="41" cy="56.630719" rx="23" ry="5.5"></ellipse>
                                <path d="M63.8930888,56.6829171 C63.8634909,58.3139035 60.8482368,59.7764249 56.0860882,60.7744291 C52.2729057,61.6786224 47.2431418,62.130719 40.9967964,62.130719 C34.7688959,62.130719 29.7518819,61.6812884 25.9457544,60.7824273 C21.1378809,59.7793179 18.1002841,58.3037754 18.1002841,56.6586768 L-9.09494702e-13,0.130718954 L80,0.130718954 L63.9113202,56.6586768 C63.9052672,56.6667658 63.8991901,56.6748459 63.8930888,56.6829171 Z" id="Combined-Shape" fill="url(#linearGradient-2)"></path>
                                <mask id="mask-5" fill="white">
                                    <use xlink:href="#path-4"></use>
                                </mask>
                                <use id="Mask" fill="url(#linearGradient-3)" xlink:href="#path-4"></use>
                                <g id="Rectangle" mask="url(#mask-5)">
                                    <g transform="translate(0.000000, 0.130719)"></g>
                                </g>
                            </g>
                        </g>
                        <g id="Group" transform="translate(10.249092, 0.000000)">
                            <g id="O-Copy" opacity="0.199999988" fill="black" fill-opacity="1">
                                <use filter="url(#filter-7)" xlink:href="#path-6"></use>
                            </g>
                            <g id="Group-6" transform="translate(0.162672, 0.000000)">
                                <path d="M30.3267974,60.6535948 C34.6514744,60.6535948 38.6653152,59.8697471 42.3683199,58.3020517 C46.0713245,56.7343562 49.2742884,54.5855324 51.9772116,51.85558 C54.6801347,49.1256277 56.8019293,45.9091492 58.3425955,42.2061445 C59.8832617,38.5031398 60.6535948,34.5433574 60.6535948,30.3267974 C60.6535948,26.1102373 59.8832617,22.150455 58.3425955,18.4474503 C56.8019293,14.7444456 54.6801347,11.5279671 51.9772116,8.79801475 C49.2742884,6.0680624 46.0713245,3.91923852 42.3683199,2.35154311 C38.6653152,0.783847704 34.6514744,-9.02389274e-13 30.3267974,-9.02389274e-13 C26.0021204,-9.02389274e-13 21.9882796,0.783847704 18.2852749,2.35154311 C14.5822702,3.91923852 11.3793063,6.0680624 8.67638321,8.79801475 C5.97346009,11.5279671 3.85166544,14.7444456 2.31099927,18.4474503 C0.770333089,22.150455 -8.95283847e-13,26.1102373 -8.95283847e-13,30.3267974 C-8.95283847e-13,34.5433574 0.770333089,38.5031398 2.31099927,42.2061445 C3.85166544,45.9091492 5.97346009,49.1256277 8.67638321,51.85558 C11.3793063,54.5855324 14.5822702,56.7343562 18.2852749,58.3020517 C21.9882796,59.8697471 26.0021204,60.6535948 30.3267974,60.6535948 Z" id="O-Copy" fill="#FFFFFF"></path>
                                <circle id="Oval-Copy" stroke="url(#linearGradient-8)" stroke-width="6" cx="29.9084967" cy="30.0711692" r="12.4117647"></circle>
                            </g>
                            <g id="O-Copy" opacity="0.199999988" fill="black" fill-opacity="1">
                                <use filter="url(#filter-10)" xlink:href="#path-9"></use>
                            </g>
                        </g>
                    </g>
                </g>
            </g>
        </g>
    </g>
</svg>