<?xml version="1.0" encoding="UTF-8"?>
<svg width="713px" height="713px" viewBox="0 0 713 713" version="1.1" xmlns="http://www.w3.org/2000/svg" xmlns:xlink="http://www.w3.org/1999/xlink">
    <!-- Generator: Sketch 64 (93537) - https://sketch.com -->
    <title>Combined Shape 2</title>
    <desc>Created with Sketch.</desc>
    <defs>
        <linearGradient x1="32.4948173%" y1="-27.5721744%" x2="75.7521307%" y2="100%" id="linearGradient-1">
            <stop stop-color="#FFFFFF" offset="0%"></stop>
            <stop stop-color="#A1A2CE" offset="99.2544781%"></stop>
            <stop stop-color="#A0A1CD" offset="100%"></stop>
        </linearGradient>
        <path d="M356.5,0 C553.389513,0 713,159.610487 713,356.5 C713,553.389513 553.389513,713 356.5,713 C159.610487,713 0,553.389513 0,356.5 C0,159.610487 159.610487,0 356.5,0 Z M356.5,142.6 C238.366292,142.6 142.6,238.366292 142.6,356.5 C142.6,474.633708 238.366292,570.4 356.5,570.4 C474.633708,570.4 570.4,474.633708 570.4,356.5 C570.4,238.366292 474.633708,142.6 356.5,142.6 Z" id="path-2"></path>
        <linearGradient x1="0%" y1="-21.8878842%" x2="94.655922%" y2="90.1784815%" id="linearGradient-4">
            <stop stop-color="#A0A1CD" offset="0%"></stop>
            <stop stop-color="#FFFFFF" offset="100%"></stop>
        </linearGradient>
    </defs>
    <g id="Design" stroke="none" stroke-width="1" fill="none" fill-rule="evenodd">
        <g id="Combined-Shape-2">
            <mask id="mask-3" fill="white">
                <use xlink:href="#path-2"></use>
            </mask>
            <use id="Combined-Shape" fill="url(#linearGradient-1)" fill-rule="nonzero" xlink:href="#path-2"></use>
            <circle id="Oval" fill="url(#linearGradient-4)" fill-rule="nonzero" mask="url(#mask-3)" cx="435" cy="335" r="292"></circle>
        </g>
    </g>
</svg>