<?xml version="1.0" encoding="UTF-8"?>
<svg width="18px" height="18px" viewBox="0 0 18 18" version="1.1" xmlns="http://www.w3.org/2000/svg" xmlns:xlink="http://www.w3.org/1999/xlink">
    <!-- Generator: Sketch 55.2 (78181) - https://sketchapp.com -->
    <title>Group 5</title>
    <desc>Created with Sketch.</desc>
    <g id="Design" stroke="none" stroke-width="1" fill="none" fill-rule="evenodd">
        <g id="Journey-3---5-" transform="translate(-960.000000, -723.000000)" fill-rule="nonzero">
            <g id="Group-Copy-4" transform="translate(405.000000, 160.000000)">
                <g id="Group-7" transform="translate(32.000000, 547.000000)">
                    <g id="Group-60" transform="translate(516.000000, 9.000000)">
                        <g id="Oval-3">
                            <g id="slack-new-logo" transform="translate(7.000000, 7.000000)">
                                <g id="Group-5">
                                    <path d="M6.28486394,0 C5.33730257,0.000698995194 4.57042918,0.768195719 4.57112904,1.71393622 C4.57042918,2.65967671 5.33800291,3.42717344 6.28556428,3.42787243 L7.99999952,3.42787243 L7.99999952,1.71463521 C8.00069938,0.768894714 7.23312565,0.00139799039 6.28486394,0 C6.28556428,0 6.28556428,0 6.28486394,0 M6.28486394,4.57142857 L1.71443859,4.57142857 C0.766877215,4.57212757 -0.000696518331,5.33962429 1.90872231e-06,6.28536479 C-0.00139685933,7.23110529 0.766176874,7.99860201 1.71373824,8 L6.28486394,8 C7.23242531,7.999301 8.00000191,7.23180428 7.99929918,6.28606378 C8.00000191,5.33962429 7.23242531,4.57212757 6.28486394,4.57142857 Z" id="Shape" fill="#36C5F0"></path>
                                    <path d="M17.9999995,6.28536479 C18.0006994,5.33962429 17.2330585,4.57212757 16.2854142,4.57142857 C15.3377699,4.57212757 14.5701289,5.33962429 14.5708288,6.28536479 L14.5708288,8 L16.2854142,8 C17.2330585,7.999301 18.0006994,7.23180428 17.9999995,6.28536479 Z M13.4284736,6.28536479 L13.4284736,1.71393622 C13.4291735,0.768894714 12.662233,0.00139799039 11.7145887,0 C10.7669444,0.000698995194 9.99930342,0.768195719 10.0000019,1.71393622 L10.0000019,6.28536479 C9.99860302,7.23110529 10.766244,7.99860201 11.7138883,8 C12.6615326,7.999301 13.4291735,7.23180428 13.4284736,6.28536479 Z" id="Shape" fill="#2EB67D"></path>
                                    <path d="M11.7144357,18 C12.6619971,17.9993011 13.4295708,17.2318714 13.428871,16.2862135 C13.4295708,15.3405557 12.6619971,14.573126 11.7144357,14.572427 L10.0000005,14.572427 L10.0000005,16.2862135 C9.99930062,17.2311725 10.7668743,17.9986021 11.7144357,18 Z M11.7144357,13.4282719 L16.2855614,13.4282719 C17.2331228,13.427573 18.0007008,12.6601433 17.9999981,11.7144854 C18.0013969,10.7688275 17.2338231,10.0013979 16.2862618,10 L11.7151361,10 C10.7675747,10.0006989 10.000001,10.7681286 10.0007008,11.7137865 C10.000001,12.6601433 10.7668743,13.427573 11.7144357,13.4282719 L11.7144357,13.4282719 Z" id="Shape" fill="#ECB22E"></path>
                                    <path d="M4.78254281e-07,11.7139362 C-0.00069944515,12.6596767 0.76694149,13.4271734 1.71458582,13.4278724 C2.66223015,13.4271734 3.42987108,12.6596767 3.42917116,11.7139362 L3.42917116,10 L1.71458582,10 C0.76694149,10.000699 -0.00069944515,10.7681957 4.78254281e-07,11.7139362 Z M4.57152494,11.7139362 L4.57152494,16.2853648 C4.57012605,17.2311053 5.33776699,17.998602 6.28541131,18 C7.23305564,17.999301 8.00069658,17.2318043 7.99999809,16.2860638 L7.99999809,11.7153342 C8.00139698,10.7695937 7.23375605,10.002097 6.28611172,10.000699 C5.33776699,10.000699 4.57082645,10.7681957 4.57152494,11.7139362 C4.57152494,11.7139362 4.57152494,11.7146352 4.57152494,11.7139362" id="Shape" fill="#E01E5A"></path>
                                </g>
                            </g>
                        </g>
                    </g>
                </g>
            </g>
        </g>
    </g>
</svg>